<svg width="200" height="200" viewBox="0 0 200 200" fill="none" xmlns="http://www.w3.org/2000/svg">
  <rect width="200" height="200" fill="#F3F4F6"/>
  <circle cx="100" cy="100" r="40" fill="#9CA3AF"/>
  <svg x="60" y="60" width="80" height="80" viewBox="0 0 24 24" fill="none" xmlns="http://www.w3.org/2000/svg">
    <path d="M12 2C6.48 2 2 6.48 2 12S6.48 22 12 22S22 17.52 22 12S17.52 2 12 2ZM12 20C7.59 20 4 16.41 4 12S7.59 4 12 4S20 7.59 20 12S16.41 20 12 20ZM12 6C10.9 6 10 6.9 10 8S10.9 10 12 10S14 9.1 14 8S13.1 6 12 6ZM12 14C10.9 14 10 14.9 10 16S10.9 18 12 18S14 17.1 14 16S13.1 14 12 14Z" fill="white"/>
  </svg>
</svg>
